<mxfile host="app.diagrams.net" agent="Mozilla/5.0 (Windows NT 10.0; Win64; x64) AppleWebKit/537.36 (KHTML, like Gecko) Chrome/128.0.0.0 Safari/537.36" version="24.7.10">
  <diagram name="Page-1" id="hchXESm0typ6h9GHZ_c0">
    <mxGraphModel dx="1050" dy="557" grid="1" gridSize="10" guides="1" tooltips="1" connect="1" arrows="1" fold="1" page="1" pageScale="1" pageWidth="850" pageHeight="1100" math="0" shadow="0">
      <root>
        <mxCell id="0" />
        <mxCell id="1" parent="0" />
        <mxCell id="7OWAdJTbvVJ7m54aIpZ--1" value="&lt;span style=&quot;font-size: 15px;&quot;&gt;Staff&lt;/span&gt;" style="swimlane;fontStyle=1;align=center;verticalAlign=top;childLayout=stackLayout;horizontal=1;startSize=26;horizontalStack=0;resizeParent=1;resizeParentMax=0;resizeLast=0;collapsible=1;marginBottom=0;whiteSpace=wrap;html=1;fillColor=#e51400;fontColor=#ffffff;strokeColor=#B20000;" parent="1" vertex="1">
          <mxGeometry x="530" y="290" width="210" height="138" as="geometry" />
        </mxCell>
        <mxCell id="7OWAdJTbvVJ7m54aIpZ--2" value="- staffId : int&lt;div&gt;- name : string&lt;/div&gt;&lt;div&gt;- position : string&lt;/div&gt;&lt;div&gt;- assignHostel : hostel&lt;/div&gt;" style="text;strokeColor=none;fillColor=none;align=left;verticalAlign=top;spacingLeft=4;spacingRight=4;overflow=hidden;rotatable=0;points=[[0,0.5],[1,0.5]];portConstraint=eastwest;whiteSpace=wrap;html=1;" parent="7OWAdJTbvVJ7m54aIpZ--1" vertex="1">
          <mxGeometry y="26" width="210" height="64" as="geometry" />
        </mxCell>
        <mxCell id="7OWAdJTbvVJ7m54aIpZ--3" value="" style="line;strokeWidth=1;fillColor=none;align=left;verticalAlign=middle;spacingTop=-1;spacingLeft=3;spacingRight=3;rotatable=0;labelPosition=right;points=[];portConstraint=eastwest;strokeColor=inherit;" parent="7OWAdJTbvVJ7m54aIpZ--1" vertex="1">
          <mxGeometry y="90" width="210" height="8" as="geometry" />
        </mxCell>
        <mxCell id="7OWAdJTbvVJ7m54aIpZ--4" value="+ assignRoom() : void&lt;div&gt;+ manageHostel() : void&lt;/div&gt;" style="text;strokeColor=none;fillColor=none;align=left;verticalAlign=top;spacingLeft=4;spacingRight=4;overflow=hidden;rotatable=0;points=[[0,0.5],[1,0.5]];portConstraint=eastwest;whiteSpace=wrap;html=1;" parent="7OWAdJTbvVJ7m54aIpZ--1" vertex="1">
          <mxGeometry y="98" width="210" height="40" as="geometry" />
        </mxCell>
        <mxCell id="7OWAdJTbvVJ7m54aIpZ--9" value="&lt;font style=&quot;font-size: 15px;&quot;&gt;Hostel&lt;/font&gt;" style="swimlane;fontStyle=1;align=center;verticalAlign=top;childLayout=stackLayout;horizontal=1;startSize=26;horizontalStack=0;resizeParent=1;resizeParentMax=0;resizeLast=0;collapsible=1;marginBottom=0;whiteSpace=wrap;html=1;fillColor=#e51400;fontColor=#ffffff;strokeColor=#B20000;" parent="1" vertex="1">
          <mxGeometry x="340" y="50" width="170" height="220" as="geometry" />
        </mxCell>
        <mxCell id="7OWAdJTbvVJ7m54aIpZ--10" value="- hostelid : int&lt;div&gt;- name: string&lt;/div&gt;&lt;div&gt;- address : string&lt;/div&gt;&lt;div&gt;- capacity : int&lt;/div&gt;&lt;div&gt;- rooms : int&lt;/div&gt;" style="text;strokeColor=none;fillColor=none;align=left;verticalAlign=top;spacingLeft=4;spacingRight=4;overflow=hidden;rotatable=0;points=[[0,0.5],[1,0.5]];portConstraint=eastwest;whiteSpace=wrap;html=1;" parent="7OWAdJTbvVJ7m54aIpZ--9" vertex="1">
          <mxGeometry y="26" width="170" height="84" as="geometry" />
        </mxCell>
        <mxCell id="7OWAdJTbvVJ7m54aIpZ--11" value="" style="line;strokeWidth=1;fillColor=none;align=left;verticalAlign=middle;spacingTop=-1;spacingLeft=3;spacingRight=3;rotatable=0;labelPosition=right;points=[];portConstraint=eastwest;strokeColor=inherit;" parent="7OWAdJTbvVJ7m54aIpZ--9" vertex="1">
          <mxGeometry y="110" width="170" height="8" as="geometry" />
        </mxCell>
        <mxCell id="7OWAdJTbvVJ7m54aIpZ--12" value="&lt;div&gt;+ addRoom() : int&lt;/div&gt;&lt;div&gt;+ removeRoom() : int&lt;/div&gt;&lt;div&gt;+ getAvailableRooms() : list&lt;/div&gt;&lt;div&gt;+ getOccupants() : list&lt;/div&gt;&lt;div&gt;+ assignStaff() : void&lt;/div&gt;&lt;div&gt;+ getComplain() : void&lt;/div&gt;" style="text;strokeColor=none;fillColor=none;align=left;verticalAlign=top;spacingLeft=4;spacingRight=4;overflow=hidden;rotatable=0;points=[[0,0.5],[1,0.5]];portConstraint=eastwest;whiteSpace=wrap;html=1;" parent="7OWAdJTbvVJ7m54aIpZ--9" vertex="1">
          <mxGeometry y="118" width="170" height="102" as="geometry" />
        </mxCell>
        <mxCell id="7OWAdJTbvVJ7m54aIpZ--17" value="&lt;span style=&quot;font-size: 15px;&quot;&gt;Room&lt;/span&gt;" style="swimlane;fontStyle=1;align=center;verticalAlign=top;childLayout=stackLayout;horizontal=1;startSize=26;horizontalStack=0;resizeParent=1;resizeParentMax=0;resizeLast=0;collapsible=1;marginBottom=0;whiteSpace=wrap;html=1;fillColor=#e51400;fontColor=#ffffff;strokeColor=#B20000;" parent="1" vertex="1">
          <mxGeometry x="100" y="290" width="210" height="190" as="geometry" />
        </mxCell>
        <mxCell id="7OWAdJTbvVJ7m54aIpZ--18" value="- roomId : int&lt;div&gt;- roomNumber : int&lt;/div&gt;&lt;div&gt;- roomType : string&lt;/div&gt;&lt;div&gt;- capacity : int&lt;/div&gt;&lt;div&gt;- occupied : boolean&lt;/div&gt;" style="text;strokeColor=none;fillColor=none;align=left;verticalAlign=top;spacingLeft=4;spacingRight=4;overflow=hidden;rotatable=0;points=[[0,0.5],[1,0.5]];portConstraint=eastwest;whiteSpace=wrap;html=1;" parent="7OWAdJTbvVJ7m54aIpZ--17" vertex="1">
          <mxGeometry y="26" width="210" height="84" as="geometry" />
        </mxCell>
        <mxCell id="7OWAdJTbvVJ7m54aIpZ--19" value="" style="line;strokeWidth=1;fillColor=none;align=left;verticalAlign=middle;spacingTop=-1;spacingLeft=3;spacingRight=3;rotatable=0;labelPosition=right;points=[];portConstraint=eastwest;strokeColor=inherit;" parent="7OWAdJTbvVJ7m54aIpZ--17" vertex="1">
          <mxGeometry y="110" width="210" height="8" as="geometry" />
        </mxCell>
        <mxCell id="7OWAdJTbvVJ7m54aIpZ--20" value="&lt;div&gt;+ checkIn() : void&lt;/div&gt;&lt;div&gt;+ checkOut() : void&lt;/div&gt;&lt;div&gt;+ isOccupied() : void&lt;/div&gt;&lt;div&gt;+ getCurrentOccupant() : Student&lt;/div&gt;" style="text;strokeColor=none;fillColor=none;align=left;verticalAlign=top;spacingLeft=4;spacingRight=4;overflow=hidden;rotatable=0;points=[[0,0.5],[1,0.5]];portConstraint=eastwest;whiteSpace=wrap;html=1;" parent="7OWAdJTbvVJ7m54aIpZ--17" vertex="1">
          <mxGeometry y="118" width="210" height="72" as="geometry" />
        </mxCell>
        <mxCell id="Z_jguNNwshC7ZrGSuh8n-14" value="&lt;span style=&quot;font-size: 15px;&quot;&gt;Student&lt;/span&gt;" style="swimlane;fontStyle=1;align=center;verticalAlign=top;childLayout=stackLayout;horizontal=1;startSize=26;horizontalStack=0;resizeParent=1;resizeParentMax=0;resizeLast=0;collapsible=1;marginBottom=0;whiteSpace=wrap;html=1;fillColor=#e51400;fontColor=#ffffff;strokeColor=#B20000;" parent="1" vertex="1">
          <mxGeometry x="109" y="531" width="190" height="210" as="geometry" />
        </mxCell>
        <mxCell id="Z_jguNNwshC7ZrGSuh8n-15" value="- studentId : int&lt;div&gt;- name : string&lt;/div&gt;&lt;div&gt;- department : string&lt;/div&gt;&lt;div&gt;- assignRoom : room&lt;/div&gt;&lt;div&gt;- assignDate : date&lt;/div&gt;&lt;div&gt;- feesPaid : boolean&lt;/div&gt;" style="text;strokeColor=none;fillColor=none;align=left;verticalAlign=top;spacingLeft=4;spacingRight=4;overflow=hidden;rotatable=0;points=[[0,0.5],[1,0.5]];portConstraint=eastwest;whiteSpace=wrap;html=1;" parent="Z_jguNNwshC7ZrGSuh8n-14" vertex="1">
          <mxGeometry y="26" width="190" height="94" as="geometry" />
        </mxCell>
        <mxCell id="Z_jguNNwshC7ZrGSuh8n-16" value="" style="line;strokeWidth=1;fillColor=none;align=left;verticalAlign=middle;spacingTop=-1;spacingLeft=3;spacingRight=3;rotatable=0;labelPosition=right;points=[];portConstraint=eastwest;strokeColor=inherit;" parent="Z_jguNNwshC7ZrGSuh8n-14" vertex="1">
          <mxGeometry y="120" width="190" height="8" as="geometry" />
        </mxCell>
        <mxCell id="Z_jguNNwshC7ZrGSuh8n-17" value="+ payFees(mId : int) : int&lt;div&gt;&lt;span style=&quot;background-color: initial;&quot;&gt;+ payFine(mId : int)&amp;nbsp; : int&amp;nbsp;&lt;/span&gt;&lt;div&gt;+ addComplain() : void&amp;nbsp;&lt;/div&gt;&lt;div&gt;+ updateProfile() : int&lt;/div&gt;&lt;div&gt;+ requestRoomChange() : void&lt;/div&gt;&lt;/div&gt;" style="text;strokeColor=none;fillColor=none;align=left;verticalAlign=top;spacingLeft=4;spacingRight=4;overflow=hidden;rotatable=0;points=[[0,0.5],[1,0.5]];portConstraint=eastwest;whiteSpace=wrap;html=1;" parent="Z_jguNNwshC7ZrGSuh8n-14" vertex="1">
          <mxGeometry y="128" width="190" height="82" as="geometry" />
        </mxCell>
        <mxCell id="DA_KNnjCS05dl_Pfishh-1" value="&lt;span style=&quot;font-size: 15px;&quot;&gt;Payment&lt;/span&gt;" style="swimlane;fontStyle=1;align=center;verticalAlign=top;childLayout=stackLayout;horizontal=1;startSize=26;horizontalStack=0;resizeParent=1;resizeParentMax=0;resizeLast=0;collapsible=1;marginBottom=0;whiteSpace=wrap;html=1;fillColor=#e51400;fontColor=#ffffff;strokeColor=#B20000;" vertex="1" parent="1">
          <mxGeometry x="460" y="451" width="250" height="150" as="geometry" />
        </mxCell>
        <mxCell id="DA_KNnjCS05dl_Pfishh-2" value="- paymentId : int&lt;div&gt;- paymentType : string&lt;/div&gt;&lt;div&gt;- paymentDate : date&lt;/div&gt;&lt;div&gt;- remaingFees : double&lt;/div&gt;&lt;div&gt;- totalFees : double&lt;/div&gt;" style="text;strokeColor=none;fillColor=none;align=left;verticalAlign=top;spacingLeft=4;spacingRight=4;overflow=hidden;rotatable=0;points=[[0,0.5],[1,0.5]];portConstraint=eastwest;whiteSpace=wrap;html=1;" vertex="1" parent="DA_KNnjCS05dl_Pfishh-1">
          <mxGeometry y="26" width="250" height="84" as="geometry" />
        </mxCell>
        <mxCell id="DA_KNnjCS05dl_Pfishh-3" value="" style="line;strokeWidth=1;fillColor=none;align=left;verticalAlign=middle;spacingTop=-1;spacingLeft=3;spacingRight=3;rotatable=0;labelPosition=right;points=[];portConstraint=eastwest;strokeColor=inherit;" vertex="1" parent="DA_KNnjCS05dl_Pfishh-1">
          <mxGeometry y="110" width="250" height="8" as="geometry" />
        </mxCell>
        <mxCell id="DA_KNnjCS05dl_Pfishh-4" value="+ updatePaymentDetail(studentId: int ) : void" style="text;strokeColor=none;fillColor=none;align=left;verticalAlign=top;spacingLeft=4;spacingRight=4;overflow=hidden;rotatable=0;points=[[0,0.5],[1,0.5]];portConstraint=eastwest;whiteSpace=wrap;html=1;" vertex="1" parent="DA_KNnjCS05dl_Pfishh-1">
          <mxGeometry y="118" width="250" height="32" as="geometry" />
        </mxCell>
        <mxCell id="DA_KNnjCS05dl_Pfishh-5" value="&lt;span style=&quot;font-size: 15px;&quot;&gt;Complin&lt;/span&gt;" style="swimlane;fontStyle=1;align=center;verticalAlign=top;childLayout=stackLayout;horizontal=1;startSize=26;horizontalStack=0;resizeParent=1;resizeParentMax=0;resizeLast=0;collapsible=1;marginBottom=0;whiteSpace=wrap;html=1;fillColor=#e51400;fontColor=#ffffff;strokeColor=#B20000;" vertex="1" parent="1">
          <mxGeometry x="462" y="624" width="250" height="150" as="geometry" />
        </mxCell>
        <mxCell id="DA_KNnjCS05dl_Pfishh-6" value="- complainId : int&lt;div&gt;- complainMsg : string&lt;/div&gt;&lt;div&gt;- complainDate : date&lt;/div&gt;&lt;div&gt;- complainSubject : string&lt;/div&gt;" style="text;strokeColor=none;fillColor=none;align=left;verticalAlign=top;spacingLeft=4;spacingRight=4;overflow=hidden;rotatable=0;points=[[0,0.5],[1,0.5]];portConstraint=eastwest;whiteSpace=wrap;html=1;" vertex="1" parent="DA_KNnjCS05dl_Pfishh-5">
          <mxGeometry y="26" width="250" height="74" as="geometry" />
        </mxCell>
        <mxCell id="DA_KNnjCS05dl_Pfishh-7" value="" style="line;strokeWidth=1;fillColor=none;align=left;verticalAlign=middle;spacingTop=-1;spacingLeft=3;spacingRight=3;rotatable=0;labelPosition=right;points=[];portConstraint=eastwest;strokeColor=inherit;" vertex="1" parent="DA_KNnjCS05dl_Pfishh-5">
          <mxGeometry y="100" width="250" height="8" as="geometry" />
        </mxCell>
        <mxCell id="DA_KNnjCS05dl_Pfishh-8" value="+ addFine(studentId : int) : double&lt;div&gt;+ getComplain() : void&lt;/div&gt;" style="text;strokeColor=none;fillColor=none;align=left;verticalAlign=top;spacingLeft=4;spacingRight=4;overflow=hidden;rotatable=0;points=[[0,0.5],[1,0.5]];portConstraint=eastwest;whiteSpace=wrap;html=1;" vertex="1" parent="DA_KNnjCS05dl_Pfishh-5">
          <mxGeometry y="108" width="250" height="42" as="geometry" />
        </mxCell>
        <mxCell id="DA_KNnjCS05dl_Pfishh-12" value="" style="endArrow=diamondThin;endFill=0;endSize=24;html=1;rounded=0;exitX=0.5;exitY=0;exitDx=0;exitDy=0;strokeColor=#FF0000;" edge="1" parent="1" source="7OWAdJTbvVJ7m54aIpZ--17">
          <mxGeometry width="160" relative="1" as="geometry">
            <mxPoint x="180" y="210" as="sourcePoint" />
            <mxPoint x="340" y="210" as="targetPoint" />
            <Array as="points">
              <mxPoint x="205" y="210" />
            </Array>
          </mxGeometry>
        </mxCell>
        <mxCell id="DA_KNnjCS05dl_Pfishh-13" value="&lt;font style=&quot;font-size: 13px;&quot;&gt;1&lt;/font&gt;" style="text;html=1;align=center;verticalAlign=middle;resizable=0;points=[];autosize=1;strokeColor=none;fillColor=none;" vertex="1" parent="1">
          <mxGeometry x="317" y="211" width="30" height="30" as="geometry" />
        </mxCell>
        <mxCell id="DA_KNnjCS05dl_Pfishh-14" value="&lt;font style=&quot;font-size: 13px;&quot;&gt;1..*&lt;/font&gt;" style="text;html=1;align=center;verticalAlign=middle;resizable=0;points=[];autosize=1;strokeColor=none;fillColor=none;" vertex="1" parent="1">
          <mxGeometry x="199" y="266" width="40" height="30" as="geometry" />
        </mxCell>
        <mxCell id="DA_KNnjCS05dl_Pfishh-15" value="" style="endArrow=diamondThin;endFill=0;endSize=24;html=1;rounded=0;exitX=0.5;exitY=0;exitDx=0;exitDy=0;strokeColor=#FF0000;entryX=1.019;entryY=0.418;entryDx=0;entryDy=0;entryPerimeter=0;" edge="1" parent="1" target="7OWAdJTbvVJ7m54aIpZ--12">
          <mxGeometry width="160" relative="1" as="geometry">
            <mxPoint x="622" y="290" as="sourcePoint" />
            <mxPoint x="757" y="210" as="targetPoint" />
            <Array as="points">
              <mxPoint x="622" y="210" />
            </Array>
          </mxGeometry>
        </mxCell>
        <mxCell id="DA_KNnjCS05dl_Pfishh-16" value="&lt;font style=&quot;font-size: 13px;&quot;&gt;workFor&lt;/font&gt;" style="text;html=1;align=center;verticalAlign=middle;resizable=0;points=[];autosize=1;strokeColor=none;fillColor=none;" vertex="1" parent="1">
          <mxGeometry x="617" y="218" width="70" height="30" as="geometry" />
        </mxCell>
        <mxCell id="DA_KNnjCS05dl_Pfishh-17" value="&lt;font style=&quot;font-size: 13px;&quot;&gt;1&lt;/font&gt;" style="text;html=1;align=center;verticalAlign=middle;resizable=0;points=[];autosize=1;strokeColor=none;fillColor=none;" vertex="1" parent="1">
          <mxGeometry x="502" y="213" width="30" height="30" as="geometry" />
        </mxCell>
        <mxCell id="DA_KNnjCS05dl_Pfishh-18" value="&lt;font style=&quot;font-size: 13px;&quot;&gt;1..*&lt;/font&gt;" style="text;html=1;align=center;verticalAlign=middle;resizable=0;points=[];autosize=1;strokeColor=none;fillColor=none;" vertex="1" parent="1">
          <mxGeometry x="588" y="266" width="40" height="30" as="geometry" />
        </mxCell>
        <mxCell id="DA_KNnjCS05dl_Pfishh-21" value="" style="endArrow=none;html=1;rounded=0;exitX=0.5;exitY=0;exitDx=0;exitDy=0;entryX=0.497;entryY=1.014;entryDx=0;entryDy=0;entryPerimeter=0;strokeColor=#FF0000;" edge="1" parent="1" source="Z_jguNNwshC7ZrGSuh8n-14" target="7OWAdJTbvVJ7m54aIpZ--20">
          <mxGeometry width="50" height="50" relative="1" as="geometry">
            <mxPoint x="480" y="560" as="sourcePoint" />
            <mxPoint x="530" y="510" as="targetPoint" />
          </mxGeometry>
        </mxCell>
        <mxCell id="DA_KNnjCS05dl_Pfishh-22" value="&lt;font style=&quot;font-size: 13px;&quot;&gt;has&lt;/font&gt;" style="text;html=1;align=center;verticalAlign=middle;resizable=0;points=[];autosize=1;strokeColor=none;fillColor=none;" vertex="1" parent="1">
          <mxGeometry x="199" y="490" width="40" height="30" as="geometry" />
        </mxCell>
        <mxCell id="DA_KNnjCS05dl_Pfishh-23" value="&lt;font style=&quot;font-size: 13px;&quot;&gt;1&lt;/font&gt;" style="text;html=1;align=center;verticalAlign=middle;resizable=0;points=[];autosize=1;strokeColor=none;fillColor=none;" vertex="1" parent="1">
          <mxGeometry x="181" y="475" width="30" height="30" as="geometry" />
        </mxCell>
        <mxCell id="DA_KNnjCS05dl_Pfishh-24" value="&lt;font style=&quot;font-size: 13px;&quot;&gt;1..*&lt;/font&gt;" style="text;html=1;align=center;verticalAlign=middle;resizable=0;points=[];autosize=1;strokeColor=none;fillColor=none;" vertex="1" parent="1">
          <mxGeometry x="170" y="508" width="40" height="30" as="geometry" />
        </mxCell>
        <mxCell id="DA_KNnjCS05dl_Pfishh-25" value="" style="endArrow=none;html=1;rounded=0;exitX=1.007;exitY=0.417;exitDx=0;exitDy=0;exitPerimeter=0;strokeColor=#FF0000;" edge="1" parent="1" source="Z_jguNNwshC7ZrGSuh8n-15">
          <mxGeometry width="50" height="50" relative="1" as="geometry">
            <mxPoint x="510" y="550" as="sourcePoint" />
            <mxPoint x="460" y="530" as="targetPoint" />
            <Array as="points">
              <mxPoint x="380" y="596" />
              <mxPoint x="380" y="530" />
            </Array>
          </mxGeometry>
        </mxCell>
        <mxCell id="DA_KNnjCS05dl_Pfishh-26" value="&lt;font style=&quot;font-size: 13px;&quot;&gt;1..*&lt;/font&gt;" style="text;html=1;align=center;verticalAlign=middle;resizable=0;points=[];autosize=1;strokeColor=none;fillColor=none;" vertex="1" parent="1">
          <mxGeometry x="291" y="571" width="40" height="30" as="geometry" />
        </mxCell>
        <mxCell id="DA_KNnjCS05dl_Pfishh-27" value="&lt;font style=&quot;font-size: 13px;&quot;&gt;1..*&lt;/font&gt;" style="text;html=1;align=center;verticalAlign=middle;resizable=0;points=[];autosize=1;strokeColor=none;fillColor=none;" vertex="1" parent="1">
          <mxGeometry x="426" y="525" width="40" height="30" as="geometry" />
        </mxCell>
        <mxCell id="DA_KNnjCS05dl_Pfishh-28" value="pay" style="text;html=1;align=center;verticalAlign=middle;resizable=0;points=[];autosize=1;strokeColor=none;fillColor=none;" vertex="1" parent="1">
          <mxGeometry x="380" y="505" width="40" height="30" as="geometry" />
        </mxCell>
        <mxCell id="DA_KNnjCS05dl_Pfishh-29" value="" style="endArrow=none;html=1;rounded=0;strokeColor=#FF0000;" edge="1" parent="1">
          <mxGeometry width="50" height="50" relative="1" as="geometry">
            <mxPoint x="300" y="690" as="sourcePoint" />
            <mxPoint x="463" y="690" as="targetPoint" />
            <Array as="points">
              <mxPoint x="386" y="690" />
            </Array>
          </mxGeometry>
        </mxCell>
        <mxCell id="DA_KNnjCS05dl_Pfishh-30" value="give" style="text;html=1;align=center;verticalAlign=middle;resizable=0;points=[];autosize=1;strokeColor=none;fillColor=none;" vertex="1" parent="1">
          <mxGeometry x="347" y="664" width="50" height="30" as="geometry" />
        </mxCell>
        <mxCell id="DA_KNnjCS05dl_Pfishh-32" value="&lt;font style=&quot;font-size: 13px;&quot;&gt;1..*&lt;/font&gt;" style="text;html=1;align=center;verticalAlign=middle;resizable=0;points=[];autosize=1;strokeColor=none;fillColor=none;" vertex="1" parent="1">
          <mxGeometry x="292" y="664" width="40" height="30" as="geometry" />
        </mxCell>
        <mxCell id="DA_KNnjCS05dl_Pfishh-33" value="&lt;font style=&quot;font-size: 13px;&quot;&gt;1..*&lt;/font&gt;" style="text;html=1;align=center;verticalAlign=middle;resizable=0;points=[];autosize=1;strokeColor=none;fillColor=none;" vertex="1" parent="1">
          <mxGeometry x="428" y="666" width="40" height="30" as="geometry" />
        </mxCell>
      </root>
    </mxGraphModel>
  </diagram>
</mxfile>
